<svg xmlns="http://www.w3.org/2000/svg" width="50" height="34" viewBox="0 0 50 34" fill="none"><path d="M38.8889 18.4332C39.1935 17.7022 40.229 14.9609 40.229 14.9609C40.229 15.0218 40.5336 14.2299 40.6555 13.8035L40.8991 14.9C40.8991 14.9 41.5692 17.8849 41.691 18.4941H38.8889V18.4332Z" fill="black"/><path fill-rule="evenodd" clip-rule="evenodd" d="M4.16667 0C1.86548 0 0 1.86548 0 4.16666V29.1666C0 31.4678 1.86548 33.3333 4.16667 33.3333H45.8333C48.1345 33.3333 50 31.4678 50 29.1666V4.16666C50 1.86548 48.1345 0 45.8333 0H4.16667ZM33.8938 18.7987C33.8938 21.3572 31.5789 23.0628 27.9849 23.0628C26.462 23.0628 25 22.7582 24.2081 22.3927L24.6954 19.5906L25.1218 19.7733C26.2183 20.2607 26.9493 20.4434 28.2895 20.4434C29.2641 20.4434 30.2997 20.0779 30.2997 19.2251C30.2997 18.6769 29.8733 18.3114 28.5331 17.7022C27.2539 17.093 25.5482 16.1184 25.5482 14.3518C25.5482 11.9152 27.924 10.2704 31.2744 10.2704C32.5536 10.2704 33.6501 10.5141 34.3202 10.8187L33.8329 13.499L33.5892 13.2553C32.98 13.0117 32.1881 12.768 31.0307 12.768C29.7515 12.8289 29.1423 13.3772 29.1423 13.8645C29.1423 14.4127 29.8733 14.8391 31.0307 15.3874C32.98 16.3011 33.8938 17.3367 33.8938 18.7987ZM43.0312 10.4531H40.4118C39.6199 10.4531 39.0107 10.6968 38.6452 11.4887L33.6501 22.88H37.1832C37.1832 22.88 37.7924 21.3571 37.9142 20.9916H42.2393C42.3611 21.418 42.6657 22.8191 42.6657 22.8191H45.8333L43.0312 10.4531ZM4.22758 10.3314L4.16667 10.575C8.24805 11.5497 10.9284 13.9254 12.0858 16.8494L10.9284 11.367C10.7456 10.575 10.1974 10.3314 9.46637 10.3314H4.22758ZM19.4566 10.4532L14.1569 22.8192H10.5629L7.51705 12.4634C9.71004 13.8645 11.5375 16.0575 12.2076 17.5804L12.5731 18.8596L15.8626 10.3923H19.4566V10.4532ZM24.2081 10.3923H20.8577L18.7256 22.8192H22.076L24.2081 10.3923Z" fill="black"/></svg>