<svg xmlns="http://www.w3.org/2000/svg" width="50" height="34" viewBox="0 0 50 34" fill="none"><path d="M9.54142 14.4895C9.47339 14.9643 9.29729 15.276 9.01251 15.4253C8.72766 15.5747 8.32081 15.649 7.79196 15.649L7.1206 15.6693L7.46651 13.4926C7.4935 13.3435 7.58161 13.2689 7.7309 13.2689H8.11754C8.65976 13.2689 9.0533 13.3471 9.29742 13.5028C9.54141 13.6588 9.62281 13.9878 9.54142 14.4895Z" fill="black"/><path d="M38.0625 18.9654C38.5506 18.9654 38.9677 18.796 39.3136 18.4569C39.6594 18.118 39.8323 17.7043 39.8324 17.2161C39.8324 16.8227 39.7066 16.5141 39.4559 16.2903C39.2048 16.0666 38.8894 15.9548 38.51 15.9548C38.0082 15.9548 37.5874 16.1276 37.2488 16.4735C36.9096 16.8193 36.74 17.2435 36.74 17.7449C36.74 18.1251 36.8621 18.4235 37.1063 18.64C37.3506 18.8571 37.669 18.9654 38.0625 18.9654Z" fill="black"/><path d="M16.2036 18.467C15.8577 18.7997 15.4337 18.9654 14.9322 18.9654C14.5386 18.9654 14.2233 18.8571 13.9862 18.64C13.7487 18.4235 13.6301 18.1251 13.6301 17.7449C13.6301 17.2435 13.7996 16.8193 14.1388 16.4735C14.4776 16.1276 14.898 15.9547 15.4 15.9547C15.7796 15.9547 16.0949 16.0666 16.346 16.2903C16.5967 16.5141 16.7224 16.8227 16.7224 17.2161C16.7223 17.7179 16.5494 18.1351 16.2036 18.467Z" fill="black"/><path d="M30.9018 15.6488C31.4984 15.6488 31.946 15.5472 32.2444 15.3438C32.5426 15.1402 32.6919 14.7539 32.6919 14.1841C32.6919 13.913 32.6107 13.706 32.4478 13.5636C32.2851 13.4212 32.1153 13.3366 31.9393 13.3094C31.7627 13.2823 31.5254 13.2687 31.227 13.2687H30.861C30.7116 13.2687 30.6234 13.3434 30.5966 13.4924L30.2507 15.6692L30.9018 15.6488Z" fill="black"/><path fill-rule="evenodd" clip-rule="evenodd" d="M0 4.16666C0 1.86548 1.86548 0 4.16667 0H45.8333C48.1345 0 50 1.86548 50 4.16666V29.1666C50 31.4678 48.1345 33.3333 45.8333 33.3333H4.16667C1.86548 33.3333 0 31.4678 0 29.1666V4.16666ZM11.2196 11.9973C10.6974 11.6383 10.0159 11.4583 9.17511 11.4583H5.9202C5.66247 11.4583 5.52007 11.5872 5.49302 11.8448L4.17082 20.1446C4.15707 20.2261 4.17747 20.3007 4.23182 20.3685C4.28585 20.4364 4.35381 20.4701 4.43521 20.4701H5.98127C6.25244 20.4701 6.40148 20.3415 6.42884 20.0837L6.79496 17.8461C6.80833 17.7376 6.85602 17.6495 6.93742 17.5816C7.01875 17.5138 7.12048 17.4694 7.24254 17.4492C7.3646 17.429 7.47969 17.4188 7.58839 17.4188C7.69677 17.4188 7.82554 17.4257 7.97496 17.4392C8.12401 17.4527 8.21902 17.4594 8.25975 17.4594C9.42601 17.4594 10.3414 17.1307 11.0061 16.4727C11.6704 15.8151 12.003 14.9032 12.003 13.7366C12.003 12.9364 11.7416 12.3569 11.2196 11.9973ZM44.0634 11.4583H45.5686C45.7448 11.4583 45.8332 11.5535 45.8333 11.7434V11.7636L44.5111 20.084C44.4836 20.3418 44.3411 20.4704 44.0839 20.4704H42.741C42.6597 20.4704 42.5916 20.4399 42.5377 20.379C42.4833 20.3179 42.4562 20.2538 42.4562 20.1856L42.4766 20.145L43.7989 11.6822C43.8257 11.5329 43.9138 11.4583 44.0634 11.4583ZM27.3822 14.7338C27.3821 14.6661 27.3549 14.6016 27.301 14.5408C27.2466 14.4798 27.1855 14.4491 27.1179 14.4491H25.5515C25.402 14.4491 25.2799 14.5172 25.1852 14.6524L23.0289 17.8261L22.1338 14.7746C22.0656 14.5578 21.9166 14.4491 21.6863 14.4491H20.1603C20.0923 14.4491 20.0313 14.4796 19.9774 14.5408C19.923 14.6016 19.896 14.6663 19.896 14.7338C19.896 14.7611 20.0283 15.1611 20.2927 15.9341C20.5571 16.7074 20.8418 17.5415 21.147 18.4366C21.4522 19.3316 21.6115 19.8065 21.6251 19.8603C20.5129 21.3795 19.9571 22.1932 19.9571 22.3015C19.9571 22.478 20.0451 22.566 20.2215 22.566H21.7879C21.937 22.566 22.059 22.4984 22.1542 22.3627L27.3417 14.8762C27.3687 14.8493 27.3822 14.802 27.3822 14.7338ZM40.4222 14.4491H41.9683C42.0496 14.4491 42.1173 14.4831 42.1718 14.5508C42.226 14.6187 42.2462 14.6931 42.2329 14.7746L41.3987 20.0842C41.3581 20.342 41.2088 20.4706 40.9514 20.4706H39.5476C39.371 20.4706 39.2831 20.3624 39.2831 20.1452C39.2831 20.0914 39.2965 20.0098 39.3239 19.9011C39.3507 19.7926 39.3646 19.7318 39.3646 19.7182C39.1336 19.9895 38.8152 20.2064 38.4083 20.3692C38.0015 20.5318 37.6014 20.6133 37.2082 20.6133C36.4213 20.6133 35.7942 20.3762 35.3262 19.9012C34.8585 19.4267 34.6245 18.7894 34.6245 17.9891C34.6245 16.9992 34.9669 16.1377 35.6518 15.4053C36.3365 14.673 37.1673 14.3067 38.1437 14.3067C39.0797 14.3067 39.7235 14.5783 40.0765 15.1206C40.1173 14.673 40.2321 14.4491 40.4222 14.4491ZM18.8584 14.4491H17.3123C17.1221 14.4491 17.0071 14.673 16.9663 15.1206C16.6002 14.5783 15.9559 14.3067 15.0337 14.3067C14.0572 14.3067 13.2265 14.673 12.5417 15.4053C11.8567 16.1377 11.5144 16.9992 11.5144 17.9891C11.5144 18.7894 11.7484 19.4267 12.2163 19.9012C12.6842 20.3762 13.3113 20.6133 14.098 20.6133C14.4775 20.6133 14.8711 20.5318 15.2778 20.3692C15.6847 20.2064 16.0102 19.9895 16.2543 19.7182C16.1999 19.8808 16.1729 20.0232 16.1729 20.1452C16.1729 20.3624 16.261 20.4706 16.4374 20.4706H17.841C18.0985 20.4706 18.2479 20.342 18.2886 20.0842L19.1226 14.7746C19.136 14.6931 19.1157 14.6187 19.0616 14.5508C19.0073 14.4831 18.9396 14.4491 18.8584 14.4491ZM32.2851 11.4583C33.126 11.4583 33.8073 11.6383 34.3295 11.9973C34.8515 12.3568 35.1127 12.9364 35.1127 13.7366C35.1127 14.9032 34.7804 15.8151 34.1159 16.4727C33.4512 17.1307 32.536 17.4593 31.3695 17.4593C31.3291 17.4593 31.2338 17.4527 31.0847 17.4392C30.9354 17.4257 30.8067 17.4188 30.6982 17.4188C30.5895 17.4188 30.4744 17.429 30.3524 17.4492C30.2303 17.4694 30.1287 17.5138 30.0473 17.5815C29.9657 17.6494 29.9183 17.7376 29.9048 17.846L29.5386 20.2057C29.4842 20.3821 29.3758 20.4701 29.2131 20.4701H27.545C27.4636 20.4701 27.3955 20.4364 27.3417 20.3685C27.2873 20.3007 27.2669 20.2261 27.2806 20.1446L28.6029 11.8448C28.6299 11.5872 28.7792 11.4583 29.0505 11.4583H32.2851Z" fill="black"/></svg>