<svg xmlns="http://www.w3.org/2000/svg" width="50" height="34" viewBox="0 0 50 34" fill="none"><path fill-rule="evenodd" clip-rule="evenodd" d="M23.0292 22.1816H24.783C26.0117 22.1816 27.2307 21.8748 27.2307 20.3883C27.2307 18.9065 25.9774 18.6254 24.8619 18.6254H20.3705L18.5826 20.3795L16.8534 18.6254H11.2001V23.9765H16.7677L18.5664 22.2051L20.2972 23.9765H23.0292V22.1816ZM22.999 19.7216H24.8317C25.3391 19.7216 25.6913 19.9098 25.6915 20.3778C25.6913 20.8407 25.3554 21.0845 24.8154 21.0845H22.999V19.7216ZM12.6 20.6945V19.7216H16.124L17.6614 21.2811L16.0558 22.8509H12.6V21.7864H15.6857V20.6945H12.6ZM21.6239 19.1737V23.4636L19.4659 21.2841L21.6239 19.1737Z" fill="black"/><path fill-rule="evenodd" clip-rule="evenodd" d="M33.4495 22.9157C33.4437 22.444 33.4151 22.2002 33.2166 21.939C33.0965 21.7831 32.8408 21.5949 32.5281 21.4899C32.8982 21.356 33.5243 20.9203 33.5244 20.0663C33.5244 19.4558 33.2452 19.1218 32.8016 18.878C32.3403 18.6543 31.8222 18.6255 31.1103 18.6255H27.8653V23.9765H29.2776V22.0223H30.7797C31.2927 22.0223 31.6059 22.068 31.811 22.2596C32.0462 22.4836 32.0421 22.8921 32.0389 23.2062C32.0385 23.2411 32.0382 23.2749 32.0382 23.3071V23.9765H33.4495V22.9157ZM31.0625 19.7218C31.3127 19.7218 31.5633 19.7266 31.7331 19.8184C31.9153 19.9051 32.0243 20.0708 32.0243 20.2996C32.0243 20.5285 31.9153 20.713 31.7331 20.8132C31.5453 20.9147 31.3128 20.9235 31.0394 20.9235H29.3317V19.7218H31.0625Z" fill="black"/><path d="M35.7313 19.7321H39.0228V18.6254H34.3315V23.9765H39.0228V22.8661L35.7313 22.8614V21.7967H38.9423V20.7049H35.7313V19.7321Z" fill="black"/><path d="M39.8971 23.9764H42.6346C44.0522 23.9764 44.8428 23.439 44.8429 22.2878C44.8429 21.7372 44.6959 21.4118 44.4224 21.1542C44.104 20.8609 43.5801 20.7406 42.8173 20.724L42.0605 20.7052C41.821 20.7052 41.6619 20.6915 41.5135 20.6446C41.3368 20.5852 41.206 20.4478 41.206 20.2459C41.206 20.0763 41.2631 19.9478 41.4172 19.8611C41.5585 19.7731 41.7247 19.7642 41.9803 19.7642H44.5589V18.6255H41.7408C40.2673 18.6255 39.7312 19.4424 39.7312 20.2186C39.7312 21.8008 41.1686 21.8365 42.4296 21.8679C42.5181 21.8701 42.6057 21.8723 42.6919 21.875C42.9365 21.875 43.0849 21.9119 43.1925 21.9935C43.2888 22.0677 43.364 22.1915 43.364 22.3476C43.364 22.4933 43.2945 22.6136 43.1979 22.6964C43.0795 22.7969 42.8904 22.8289 42.6237 22.8289H39.8971V23.9764Z" fill="black"/><path fill-rule="evenodd" clip-rule="evenodd" d="M4.16667 0C1.86548 0 0 1.86548 0 4.16666V14.7185H1.52657L2.07222 13.5252H4.99883L5.5389 14.7185H8.39794V10.5249L10.4414 14.7185H11.6755L13.7138 10.5287L13.719 14.7185H15.1598V9.36873H12.8195L11.1296 12.9979L9.29014 9.36873H6.99592V14.4339L4.60548 9.36873H2.51704L0 14.7185L6.4104e-05 11.8809L1.70222 8.33333H5.36768L5.83993 9.21449V8.33333H10.1379L11.0782 10.2605L11.9937 8.33333H25.6395C26.2596 8.33333 26.8174 8.4385 27.2269 8.76901V8.33333H30.9621V8.76901C31.6054 8.44837 32.4016 8.33333 33.3077 8.33333H38.7203L39.2224 9.21449V8.33333H43.2293L43.7761 9.21449V8.33333H47.681V15.7943H43.7351L42.9897 14.6657V15.7944H38.0658L37.531 14.6062H36.3186L35.7717 15.7944H33.2166C32.2139 15.7944 31.452 15.5791 30.9621 15.3403V15.7944H24.8884V14.1012C24.8884 13.8622 24.8421 13.8489 24.683 13.8438H24.4557L24.4612 15.7943H12.718V14.8723L12.2958 15.7985H9.84278L9.42104 14.8862V15.7948H4.69574L4.15567 14.6065H2.9432L2.40172 15.7948H0V29.1666C0 31.4678 1.86548 33.3333 4.16667 33.3333H45.8333C48.1345 33.3333 50 31.4678 50 29.1666V21.2443C49.9941 21.2373 49.9882 21.2304 49.9824 21.2234C49.9499 21.1846 49.918 21.1464 49.8696 21.1119C49.5567 20.8187 49.0434 20.6984 48.2748 20.681L47.5128 20.6626C47.2787 20.6626 47.1196 20.6489 46.9712 20.602C46.7891 20.5425 46.6639 20.405 46.6639 20.2033C46.6639 20.0336 46.7208 19.9051 46.8692 19.8183C47.0122 19.7305 47.1823 19.7216 47.438 19.7216L50 19.7218V4.16666C50 1.86548 48.1345 0 45.8333 0H4.16667ZM2.60044 12.4147L3.55694 10.282L4.5192 12.4147H2.60044ZM45.3755 23.9447H48.09C48.9902 23.9447 49.6557 23.7148 49.997 23.2606V24.6516C49.4338 24.899 48.6936 24.9957 47.9358 24.9957H44.2936V24.5177C43.8717 24.8261 43.1097 24.9957 42.3807 24.9957H30.8984V23.2702C30.8984 23.0587 30.8753 23.0498 30.6427 23.0498H30.4604V24.9961H26.6807V22.981C26.0479 23.2299 25.3308 23.2523 24.7228 23.2434H24.2722V25L19.6898 24.9963L18.5632 23.8352L17.3673 24.9963H9.93316V17.5292H17.5103L18.5974 18.672L19.7579 17.5292H24.8303C25.4164 17.5292 26.3787 17.5852 26.8112 17.9663V17.5292H31.3435C31.7692 17.5292 32.692 17.6074 33.2387 17.9663V17.5292H40.11V17.9663C40.4516 17.6679 41.1738 17.5292 41.789 17.5292H45.6366V17.9663C46.0404 17.7003 46.6108 17.5292 47.3958 17.5292H49.9972V18.5939H47.1973C45.7223 18.5939 45.1805 19.4109 45.1805 20.1869C45.1805 21.7695 46.6189 21.805 47.8844 21.8361C47.9729 21.8383 48.0606 21.8405 48.1468 21.8431C48.3916 21.8431 48.5403 21.8803 48.6421 21.962C48.7458 22.0361 48.8139 22.1599 48.8139 22.3158C48.815 22.4483 48.7546 22.5751 48.6477 22.6647C48.5347 22.7653 48.347 22.7973 48.079 22.7973H45.3755V23.9447Z" fill="black"/><path fill-rule="evenodd" clip-rule="evenodd" d="M33.3574 9.36842C32.3888 9.36842 31.677 9.56533 31.2229 9.9923C30.6184 10.5655 30.465 11.2908 30.4653 12.0843C30.4653 13.0571 30.7221 13.6724 31.2161 14.1265C31.706 14.5809 32.571 14.7183 33.2542 14.7183H34.8991L35.4297 13.525H38.3497L38.8966 14.7183H41.7592V10.703L44.4235 14.7183H46.4154V9.36867H44.9756V13.0945L42.5048 9.36867H40.3647V14.4287L37.9849 9.36861H35.8789L33.8979 13.5757H33.2664C32.8965 13.5757 32.5031 13.5115 32.2867 13.2998C32.0256 13.0298 31.9003 12.6166 31.9003 12.0434C31.9003 11.4827 32.0647 11.0569 32.3044 10.8317C32.5833 10.5841 32.8732 10.5147 33.3859 10.5147H34.7181V9.36842H33.3574ZM35.9312 12.4147L36.8987 10.282L37.8714 12.4147H35.9312Z" fill="black"/><path d="M29.7658 9.36848H28.3317V14.7183H29.7658V9.36848Z" fill="black"/><path fill-rule="evenodd" clip-rule="evenodd" d="M25.0984 9.36848H21.8655L21.8657 14.7183H23.2713V12.7724H24.7802C25.2863 12.7724 25.5995 12.8133 25.8048 13.0014C26.0346 13.2326 26.0305 13.6299 26.0274 13.9417C26.027 13.9769 26.0267 14.011 26.0267 14.0436L26.032 14.7182H27.4496V13.6672C27.4496 13.1895 27.4155 12.9518 27.217 12.6857C27.0918 12.5299 26.829 12.3418 26.5215 12.2352C26.886 12.1029 27.5118 11.6622 27.5118 10.8092C27.5118 10.2126 27.2452 9.86369 26.8006 9.62473C26.3461 9.38583 25.8166 9.36848 25.0984 9.36848ZM26.0247 11.095C26.0247 11.3288 25.9174 11.5171 25.735 11.6036C25.5418 11.7103 25.3132 11.714 25.0398 11.7139H23.3322V10.5256H25.063C25.308 10.5256 25.5635 10.5356 25.7296 10.622C25.9119 10.7 26.0247 10.8659 26.0247 11.095Z" fill="black"/><path d="M20.8947 9.36848H16.1992V14.7182H20.8947V13.6119H17.6049V12.5435H20.8158V11.4468H17.6049V10.4825H20.8947V9.36848Z" fill="black"/></svg>