<svg xmlns="http://www.w3.org/2000/svg" width="50" height="34" viewBox="0 0 50 34" fill="none"><path d="M7.59426 18.3469C7.19101 18.6827 6.65337 18.8841 5.84687 18.8841H5.44362V14.516H5.77958C6.58609 14.516 7.12373 14.6504 7.52707 15.0535C7.99742 15.4564 8.26638 16.0617 8.26638 16.6667C8.33358 17.2715 8.0648 17.9432 7.59426 18.3469Z" fill="black"/><path d="M42.2716 16.3975H42.6746C43.4812 16.3975 43.9517 16.0617 43.9517 15.39C43.9517 14.7175 43.4811 14.3816 42.6746 14.3816H42.2716V16.3975Z" fill="black"/><path fill-rule="evenodd" clip-rule="evenodd" d="M0 4.16666C0 1.86548 1.86548 0 4.16667 0H45.8333C48.1345 0 50 1.86548 50 4.16666V29.1666C50 31.4678 48.1345 33.3333 45.8333 33.3333H4.16667C1.86548 33.3333 0 31.4678 0 29.1666V4.16666ZM29.7712 16.6481C29.775 15.7526 29.4392 14.8558 28.7635 14.1799C28.0862 13.5027 27.1872 13.1672 26.2898 13.1726L26.2768 13.1723C24.3282 13.1723 22.7824 14.7177 22.7824 16.6669C22.7824 18.5969 24.3472 20.1612 26.2768 20.1612C28.2261 20.1612 29.7716 18.6156 29.7716 16.6669L29.7712 16.6481ZM20.609 18.8833C21.1283 18.8723 21.6103 18.668 22.1326 18.1451L22.1336 18.1803L22.1326 18.1784L22.1326 18.2104L22.1345 18.2085L22.1775 19.6911C21.5728 19.96 21.102 20.0941 20.5644 20.0941L20.5422 20.0936L20.5254 20.0932L20.5124 20.0936L20.4973 20.0941C18.5485 20.0941 17.0023 18.6157 17.0023 16.6671C17.0023 15.8939 17.2751 15.1777 17.7264 14.5927C17.8711 14.3903 18.0417 14.2135 18.2198 14.0532C18.8376 13.5112 19.6431 13.1661 20.4974 13.105C21.102 13.105 21.5729 13.2395 22.11 13.5082V15.0538C21.5728 14.5162 21.1021 14.3146 20.4974 14.3146C19.9372 14.3146 19.45 14.5465 19.0718 14.9056C18.6686 15.3763 18.414 15.9273 18.414 16.5996C18.414 17.9352 19.3441 18.872 20.609 18.8833ZM22.1336 18.1803L22.1345 18.2085C22.1426 18.1991 22.1385 18.1897 22.1336 18.1803ZM34.1833 14.0674L32.6613 17.8092L30.9139 13.3735H29.5029L32.2581 20.1611H32.9973L35.8871 13.3735H34.476L34.1833 14.0674ZM36.4249 19.9598V13.3735H40.121V14.5161H37.7689V15.9273H40.0541V17.0701H37.7689V18.8841H40.121V19.9598H36.4249ZM6.04873 13.3735H4.16667V19.9598H6.04863C7.05653 19.9598 7.79566 19.6907 8.40049 19.2203C9.13962 18.6155 9.61025 17.6748 9.61025 16.6669C9.61034 14.7175 8.19882 13.3735 6.04873 13.3735ZM10.2155 13.3729H11.4924V19.959H10.2155V13.3729ZM14.7179 15.9273C13.9115 15.6586 13.7097 15.4568 13.7097 15.1209C13.7097 14.7177 14.1129 14.3817 14.6506 14.3817C15.0538 14.3817 15.3898 14.5162 15.7258 14.9194L16.3981 14.0458C15.8602 13.5752 15.1885 13.3067 14.4492 13.3067C13.3064 13.3067 12.3655 14.1132 12.3655 15.1881C12.3655 16.1292 12.7692 16.5323 13.9786 17.0028L14.1079 17.0511C14.5499 17.216 14.7293 17.2829 14.8526 17.406C15.1209 17.5401 15.2556 17.8092 15.2556 18.0777C15.2556 18.6154 14.8526 19.0188 14.2474 19.0188C13.642 19.0188 13.1048 18.6828 12.836 18.1451L12.0295 18.9516C12.6346 19.8252 13.3738 20.2283 14.3147 20.2283C15.6586 20.2283 16.5991 19.3547 16.5991 18.0777C16.5993 16.9355 16.1964 16.4651 14.7179 15.9273ZM45.2958 15.3226C45.2958 16.3304 44.7579 17.0027 43.7502 17.204L45.8333 19.9598H44.2874L42.4734 17.3385H42.2715V19.9598H40.9947V13.3735H42.9437C44.422 13.3735 45.2958 14.1131 45.2958 15.3226Z" fill="black"/></svg>