<svg xmlns="http://www.w3.org/2000/svg" width="50" height="34" viewBox="0 0 50 34" fill="none"><path fill-rule="evenodd" clip-rule="evenodd" d="M4.16667 0C1.86548 0 0 1.86548 0 4.16666V29.1666C0 31.4678 1.86548 33.3333 4.16667 33.3333H45.8333C48.1345 33.3333 50 31.4678 50 29.1666V4.16666C50 1.86548 48.1345 0 45.8333 0H4.16667ZM32.961 29.1401C39.7924 29.1167 45.2262 23.4889 45.111 16.5561C44.9964 9.65822 39.3756 4.03341 32.5441 4.0568C29.6605 4.06668 27.0339 5.08604 24.9676 6.76543L25.0325 6.81717L24.6647 6.81843C22.5494 5.17213 19.9046 4.18347 17.039 4.19328C10.2076 4.21668 4.77379 9.84451 4.889 16.7773C5.00421 23.71 10.6244 29.3 17.4559 29.2766C20.3395 29.2667 22.9661 28.2474 25.0324 26.568L24.9666 26.5162L25.3353 26.515C27.4506 28.1613 30.0954 29.1499 32.961 29.1401Z" fill="black"/></svg>