<svg width="1409" height="223" viewBox="0 0 1409 223" fill="none" xmlns="http://www.w3.org/2000/svg">
<path d="M358.551 0H1019.1V15.7369H358.551V0Z" fill="#FFF"/>
<path d="M0 41.782H116.514V63.0695H70.7361V182.621H45.5341V63.0695H0V41.782Z" fill="#FFF"/>
<path d="M131.915 41.782H154.865V94.0553H155.291C162.23 83.686 174.04 77.5864 186.519 77.8914C209.104 77.8914 223.409 89.7246 223.409 112.598V182.621H200.46V118.515C200.033 102.534 193.581 95.6412 180.067 95.6412C166.187 95.5192 154.925 106.742 154.804 120.588C154.804 121.198 154.804 121.808 154.804 122.418V182.621H131.854V41.782H131.915Z" fill="#FFF"/>
<path d="M263.647 137.423C263.647 153.404 272.535 167.616 291.649 167.616C303.033 168.653 313.625 161.577 317.095 150.659H338.827C333.775 172.923 314.477 185.366 291.649 185.366C259.021 185.366 240.698 163.041 240.698 131.69C240.698 102.717 259.995 77.8914 291.041 77.8914C323.913 77.8914 344.062 106.864 340.288 137.423H263.647ZM317.278 122.662C318.008 107.84 306.564 95.2142 291.71 94.5432C276.918 93.8113 264.317 105.278 263.647 120.161C263.647 121.015 263.647 121.869 263.647 122.723H317.278V122.662Z" fill="#FFF"/>
<path d="M458.202 86.5528C455.036 69.474 439.635 57.4579 422.286 58.5558C391.483 58.5558 378.578 85.1499 378.578 112.171C378.578 139.192 391.483 165.847 422.286 165.847C444.688 165.847 456.984 149.439 458.811 128.945H483.16C481.152 162.675 456.741 185.976 421.86 185.976C378.7 185.976 352.95 152.428 352.95 112.171C352.95 71.9138 379.126 38.4272 422.286 38.4272C454.732 38.4272 480.36 56.177 483.16 86.5528H458.202Z" fill="#FFF"/>
<path d="M634.251 112.171C634.251 152.428 608.44 185.915 565.28 185.915C522.12 185.915 496.37 152.489 496.37 112.171C496.37 71.8528 522.12 38.4272 565.28 38.4272C608.44 38.4272 634.251 71.9748 634.251 112.171ZM521.572 112.171C521.572 139.253 534.478 165.847 565.28 165.847C596.082 165.847 609.049 139.253 609.049 112.171C609.049 85.0889 596.143 58.5558 565.28 58.5558C534.417 58.5558 521.572 85.3939 521.572 112.171Z" fill="#FFF"/>
<path d="M634.251 41.782H660.488L696.586 153.221H697.013L733.842 41.782H759.47L710.283 182.621H682.281L634.251 41.782Z" fill="#FFF"/>
<path d="M773.045 41.782H876.653V63.0695H798.247V99.9718H870.809V120.1H798.247V161.333H878.053V182.621H773.045V41.782Z" fill="#FFF"/>
<path d="M902.038 41.782H970.765C1002.24 41.782 1018.31 55.994 1018.31 79.8433C1018.31 106.864 999.193 113.757 994.567 115.343V115.892C1003.21 117.112 1015.93 123.394 1015.93 145.719C1015.93 162.065 1018.31 177.07 1023.79 182.804H996.758C993.593 176.399 992.254 169.202 992.923 162.065C992.923 136.264 987.505 124.797 964.312 124.797H927.24V182.804H902.038V41.782ZM927.24 105.888H968.573C984.462 105.888 992.923 98.203 992.923 83.381C992.923 65.4483 980.748 61.9106 967.904 61.9106H926.996L927.24 105.888Z" fill="#FFF"/>
<path d="M1169.52 182.621H1153.39L1149.55 166.03C1139.14 179.266 1123.01 186.708 1106.21 185.976C1063.05 185.976 1037.3 152.428 1037.3 112.171C1037.3 71.9138 1063.05 38.4272 1106.21 38.4272C1137.68 38.4272 1164.04 54.7741 1167.94 86.5528H1143.59C1141.15 68.2541 1124.59 58.5558 1106.45 58.5558C1075.59 58.5558 1062.75 85.1499 1062.75 112.171C1062.75 139.192 1075.59 165.847 1106.45 165.847C1132.26 166.213 1146.39 151.025 1146.75 127.176H1108.46V108.45H1169.76L1169.52 182.621Z" fill="#FFF"/>
<path d="M1285.18 182.621H1262.66V168.409H1262.23C1255.9 178.778 1244.7 185.244 1232.59 185.366C1205.37 185.366 1193.69 171.947 1193.69 145.292V80.6362H1216.7V143.157C1216.7 161.089 1224.12 167.555 1236.6 167.555C1255.78 167.555 1262.23 155.356 1262.23 139.741V80.5752H1285.18V182.621Z" fill="#FFF"/>
<path d="M1305.76 80.6362H1330.96L1358.17 156.759H1358.6L1385.02 80.6362H1409L1368.46 188.111C1360.97 206.409 1355.55 223 1331.57 223C1326.21 223 1320.91 222.634 1315.62 221.841V202.932C1319.21 203.664 1322.86 204.091 1326.52 204.274C1337.23 204.274 1339.85 198.785 1342.65 190.062L1345.26 182.194L1305.76 80.6362Z" fill="#FFF"/>
</svg>
